{
  "accessors": [
    {
      "bufferView": 2,
      "componentType": 5126,
      "count": 65532,
      "max": [
        1.6363195180892944,
        -3.0885398387908936,
        0.7824090123176575
      ],
      "min": [
        -3.187469005584717,
        -8.777252197265625,
        -2.969619035720825
      ],
      "type": "VEC3"
    },
    {
      "bufferView": 2,
      "byteOffset": 786384,
      "componentType": 5126,
      "count": 65532,
      "max": [
        0.9996981620788574,
        0.9925271272659302,
        0.9998958110809326
      ],
      "min": [
        -0.9996145963668823,
        -0.9986395835876465,
        -0.9999962449073792
      ],
      "type": "VEC3"
    },
    {
      "bufferView": 1,
      "componentType": 5126,
      "count": 65532,
      "max": [
        0.9939799904823303,
        0.9962700009346008
      ],
      "min": [
        0.0019499999471008778,
        0.0019499999471008778
      ],
      "type": "VEC2"
    },
    {
      "bufferView": 0,
      "componentType": 5125,
      "count": 350748,
      "type": "SCALAR"
    },
    {
      "bufferView": 2,
      "byteOffset": 1572768,
      "componentType": 5126,
      "count": 32891,
      "max": [
        1.6133263111114502,
        -3.0659093856811523,
        0.7668890357017517
      ],
      "min": [
        -3.679144859313965,
        -8.859393119812012,
        -2.9586191177368164
      ],
      "type": "VEC3"
    },
    {
      "bufferView": 2,
      "byteOffset": 1967460,
      "componentType": 5126,
      "count": 32891,
      "max": [
        0.9996981620788574,
        0.9979656338691711,
        0.9999982714653015
      ],
      "min": [
        -0.9996145963668823,
        -0.9996339082717896,
        -0.9999962449073792
      ],
      "type": "VEC3"
    },
    {
      "bufferView": 1,
      "byteOffset": 524256,
      "componentType": 5126,
      "count": 32891,
      "max": [
        0.9932100176811218,
        0.9980400204658508
      ],
      "min": [
        0.006490000057965517,
        0.002409999957308173
      ],
      "type": "VEC2"
    },
    {
      "bufferView": 0,
      "byteOffset": 1402992,
      "componentType": 5125,
      "count": 142566,
      "type": "SCALAR"
    },
    {
      "bufferView": 2,
      "byteOffset": 2362152,
      "componentType": 5126,
      "count": 12010,
      "max": [
        0.1449842005968094,
        -0.00032651424407958984,
        0.9587351083755493
      ],
      "min": [
        -0.00028492510318756104,
        -1.8652210235595703,
        -0.9623630046844482
      ],
      "type": "VEC3"
    },
    {
      "bufferView": 2,
      "byteOffset": 2506272,
      "componentType": 5126,
      "count": 12010,
      "max": [
        1.0,
        0.9999985694885254,
        0.9999163150787354
      ],
      "min": [
        -1.0,
        -0.99998939037323,
        -0.9997732043266296
      ],
      "type": "VEC3"
    },
    {
      "bufferView": 1,
      "byteOffset": 787384,
      "componentType": 5126,
      "count": 12010,
      "max": [
        0.9891600012779236,
        0.9980400204658508
      ],
      "min": [
        0.0019499999471008778,
        0.0019499999471008778
      ],
      "type": "VEC2"
    },
    {
      "bufferView": 0,
      "byteOffset": 1973256,
      "componentType": 5125,
      "count": 68658,
      "type": "SCALAR"
    },
    {
      "bufferView": 3,
      "componentType": 5126,
      "count": 102,
      "max": [
        6.25
      ],
      "min": [
        0.0416666679084301
      ],
      "type": "SCALAR"
    },
    {
      "bufferView": 4,
      "componentType": 5126,
      "count": 102,
      "max": [
        0.0001966142444871366,
        0.007009171415120363,
        0.9999094009399414,
        0.7098826169967651
      ],
      "min": [
        -0.0051678940653800964,
        -0.007271867245435715,
        -0.999965250492096,
        0.004613590892404318
      ],
      "type": "VEC4"
    },
    {
      "bufferView": 3,
      "byteOffset": 408,
      "componentType": 5126,
      "count": 102,
      "max": [
        5.416666507720947
      ],
      "min": [
        0.0
      ],
      "type": "SCALAR"
    },
    {
      "bufferView": 4,
      "byteOffset": 1632,
      "componentType": 5126,
      "count": 102,
      "max": [
        0.00019661427359096706,
        0.0070091718807816505,
        0.9999094009399414,
        0.7106136083602905
      ],
      "min": [
        -0.005169155541807413,
        -0.007271867245435715,
        -0.999965250492096,
        0.0046135904267430305
      ],
      "type": "VEC4"
    }
  ],
  "animations": [
    {
      "channels": [
        {
          "sampler": 0,
          "target": {
            "node": 6,
            "path": "rotation"
          }
        }
      ],
      "name": "Action",
      "samplers": [
        {
          "input": 12,
          "interpolation": "LINEAR",
          "output": 13
        }
      ]
    },
    {
      "channels": [
        {
          "sampler": 0,
          "target": {
            "node": 6,
            "path": "rotation"
          }
        }
      ],
      "name": "MNPE_S_182_Fotel_klapa_edi01wAction",
      "samplers": [
        {
          "input": 14,
          "interpolation": "LINEAR",
          "output": 15
        }
      ]
    }
  ],
  "asset": {
    "extras": {
      "author": "Virtual Museums of Małopolska (https://sketchfab.com/WirtualneMuzeaMalopolski)",
      "license": "CC-BY-4.0 (http://creativecommons.org/licenses/by/4.0/)",
      "source": "https://sketchfab.com/3d-models/night-chair-854712bd345e4665b88f5c0ce5e0454c",
      "title": "Night chair"
    },
    "generator": "Sketchfab-15.22.0",
    "version": "2.0"
  },
  "bufferViews": [
    {
      "buffer": 0,
      "byteLength": 2247888,
      "name": "floatBufferViews",
      "target": 34963
    },
    {
      "buffer": 0,
      "byteLength": 883464,
      "byteOffset": 2247888,
      "byteStride": 8,
      "name": "floatBufferViews",
      "target": 34962
    },
    {
      "buffer": 0,
      "byteLength": 2650392,
      "byteOffset": 3131352,
      "byteStride": 12,
      "name": "floatBufferViews",
      "target": 34962
    },
    {
      "buffer": 0,
      "byteLength": 816,
      "byteOffset": 5781744,
      "name": "floatBufferViews"
    },
    {
      "buffer": 0,
      "byteLength": 3264,
      "byteOffset": 5782560,
      "byteStride": 16,
      "name": "floatBufferViews"
    }
  ],
  "buffers": [
    {
      "byteLength": 5785824,
      "uri": "sapo.bin"
    }
  ],
  "extensionsRequired": [
    "KHR_materials_pbrSpecularGlossiness"
  ],
  "extensionsUsed": [
    "KHR_materials_pbrSpecularGlossiness"
  ],
  "images": [
    {
      "uri": "textures/defaultMat_diffuse.png"
    },
    {
      "uri": "textures/defaultMat.001_diffuse.png"
    }
  ],
  "materials": [
    {
      "doubleSided": true,
      "extensions": {
        "KHR_materials_pbrSpecularGlossiness": {
          "diffuseFactor": [
            1.0,
            1.0,
            1.0,
            1.0
          ],
          "diffuseTexture": {
            "index": 0
          },
          "glossinessFactor": 0.7725737830820055,
          "specularFactor": [
            0.07161926588728651,
            0.07161926588728651,
            0.07161926588728651
          ],
          "specularGlossinessTexture": {
            "index": 0
          }
        }
      },
      "name": "defaultMat"
    },
    {
      "doubleSided": true,
      "extensions": {
        "KHR_materials_pbrSpecularGlossiness": {
          "diffuseFactor": [
            1.0,
            1.0,
            1.0,
            1.0
          ],
          "diffuseTexture": {
            "index": 1
          },
          "glossinessFactor": 0.7603832697394887,
          "specularFactor": [
            0.0,
            0.0,
            0.0
          ]
        }
      },
      "name": "defaultMat.001"
    }
  ],
  "meshes": [
    {
      "name": "Object_0",
      "primitives": [
        {
          "attributes": {
            "NORMAL": 1,
            "POSITION": 0,
            "TEXCOORD_0": 2
          },
          "indices": 3,
          "material": 0,
          "mode": 4
        }
      ]
    },
    {
      "name": "Object_1",
      "primitives": [
        {
          "attributes": {
            "NORMAL": 5,
            "POSITION": 4,
            "TEXCOORD_0": 6
          },
          "indices": 7,
          "material": 0,
          "mode": 4
        }
      ]
    },
    {
      "name": "Object_2",
      "primitives": [
        {
          "attributes": {
            "NORMAL": 9,
            "POSITION": 8,
            "TEXCOORD_0": 10
          },
          "indices": 11,
          "material": 1,
          "mode": 4
        }
      ]
    }
  ],
  "nodes": [
    {
      "children": [
        1
      ],
      "matrix": [
        -5.623061969316665e-17,
        5.623061969316665e-17,
        -0.2532401978969574,
        0.0,
        -0.2532401978969574,
        4.072412912803894e-17,
        5.623061969316666e-17,
        0.0,
        4.0724129128038954e-17,
        0.2532401978969574,
        5.623061969316665e-17,
        0.0,
        0.0,
        0.0,
        0.0,
        1.0
      ],
      "name": "Sketchfab_model"
    },
    {
      "children": [
        2
      ],
      "name": "root"
    },
    {
      "children": [
        3,
        6
      ],
      "matrix": [
        1.0,
        0.0,
        0.0,
        0.0,
        0.0,
        2.220446049250313e-16,
        1.0,
        0.0,
        0.0,
        -1.0,
        2.220446049250313e-16,
        0.0,
        0.0,
        0.0,
        0.0,
        1.0
      ],
      "name": "GLTF_SceneRootNode"
    },
    {
      "children": [
        4,
        5
      ],
      "matrix": [
        -0.35441804726947623,
        0.8776726275024815,
        0.3226121614300703,
        0.0,
        0.6412519567512098,
        0.4792288511460463,
        -0.5992792639429343,
        0.0,
        -0.6805760616804237,
        -0.0055197067069739925,
        -0.7326566433913182,
        0.0,
        3.532283306121826,
        5.999118328094482,
        -4.16175651550293,
        1.0
      ],
      "name": "MNPE_S_182_Fotel_nocny_82K_edi04w_2"
    },
    {
      "mesh": 0,
      "name": "Object_4"
    },
    {
      "mesh": 1,
      "name": "Object_5"
    },
    {
      "children": [
        7
      ],
      "name": "MNPE_S_182_Fotel_klapa_edi01w_3",
      "rotation": [
        -0.005169176962226629,
        0.005156877916306257,
        -0.7035446166992188,
        0.7106136083602905
      ],
      "translation": [
        1.454615831375122,
        2.467806339263916,
        0.06828402727842331
      ]
    },
    {
      "mesh": 2,
      "name": "Object_7"
    }
  ],
  "samplers": [
    {
      "magFilter": 9729,
      "minFilter": 9987,
      "wrapS": 10497,
      "wrapT": 10497
    }
  ],
  "scene": 0,
  "scenes": [
    {
      "name": "Sketchfab_Scene",
      "nodes": [
        0
      ]
    }
  ],
  "textures": [
    {
      "sampler": 0,
      "source": 0
    },
    {
      "sampler": 0,
      "source": 1
    }
  ]
}
